<?xml version="1.0" standalone="no"?>
<!DOCTYPE svg PUBLIC "-//W3C//DTD SVG 1.1//EN"
  "http://www.w3.org/Graphics/SVG/1.1/DTD/svg11.dtd">
<svg version="1.1" xmlns="http://www.w3.org/2000/svg" width="1280" height="720" viewBox="-1040.8888888888887 -32 1889.7777777777776 1063" id="ccdiagram"><defs><style type="text/css">@import url(&#x27;https://fonts.googleapis.com/css?family=Open+Sans:400,700&#x27;);</style></defs><g><g style="pointer-events:none"><g><pattern id="gridPatternMinor" x="0" y="37" width="128" height="74" patternUnits="userSpaceOnUse"><path d="M 0 0 L 128 74" stroke="#eee" stroke-width="1"></path><path d="M 128 0 L 0 74" stroke="#eee" stroke-width="1"></path></pattern><polygon points="0 0, 768 444, -192 999, -960 555" fill="url(#gridPatternMinor)"></polygon></g><polygon points="-960 555, -960 565, -192 1009, -192 999" stroke-linejoin="round" stroke="#54626f" stroke-width="1" fill="#f9f9f9"></polygon><polygon points="-192 1009, 768 454, 768 444, -192 999" stroke-linejoin="round" stroke="#54626f" stroke-width="1" fill="#e2e2e2"></polygon></g><g pointer-events=""><g opacity="1"><g id="a52a8e26-3f29-4a1c-8cc6-fc3dae2b45e4"><svg x="-33" y="93" overflow="visible" style="user-select:none"><g fill="#4286c5"><polygon points="0 0, 608 351, 379 483, -229 132" stroke="#4286c5" stroke-width="40"></polygon></g></svg></g></g></g><g style="pointer-events:none"><g><pattern id="gridPatternMajor" x="0" y="37" width="128" height="74" patternUnits="userSpaceOnUse"><path d="M 64 0 L 128 37 64 74 0 37 z" stroke="#54626f" stroke-width="1" fill="none"></path></pattern><polygon points="0 0, 768 444, -192 999, -960 555" fill="url(#gridPatternMajor)"></polygon></g></g><g pointer-events=""></g><g pointer-events="none"></g><g pointer-events=""><g><g cursor="cell"><line x1="-432" y1="287" x2="-224" y2="167" stroke="red" stroke-width="8" opacity="0"></line><line x1="-432" y1="287" x2="-224" y2="167" stroke="#000000" stroke-width="2" stroke-linecap="round"></line></g></g><g><g cursor="cell"><line x1="-554" y1="450" x2="-640" y2="500" stroke="red" stroke-width="8" opacity="0"></line><line x1="-554" y1="450" x2="-640" y2="500" stroke="#000000" stroke-width="2" stroke-linecap="round"></line><polygon points="-544 444, -570 449, -556 451, -553 459, -544 444" stroke-linejoin="round" fill="#000000" stroke="#000000" stroke-width="1"></polygon></g></g><g><g cursor="cell"><line x1="288" y1="500" x2="144" y2="583" stroke="red" stroke-width="8" opacity="0"></line><line x1="288" y1="500" x2="144" y2="583" stroke="#000000" stroke-width="2" stroke-linecap="round"></line></g></g><g><g cursor="cell"><line x1="-448" y1="389" x2="-394" y2="357" stroke="red" stroke-width="8" opacity="0"></line><line x1="-448" y1="389" x2="-394" y2="357" stroke="#000000" stroke-width="2" stroke-linecap="round"></line><polygon points="-384 352, -410 357, -396 359, -393 366, -384 352" stroke-linejoin="round" fill="#000000" stroke="#000000" stroke-width="1"></polygon></g></g><g><g cursor="cell"><line x1="96" y1="352" x2="118" y2="364" stroke="red" stroke-width="8" opacity="0"></line><line x1="96" y1="352" x2="118" y2="364" stroke="#000000" stroke-width="2" stroke-linecap="round"></line><polygon points="128 370, 119 355, 116 363, 102 365, 128 370" stroke-linejoin="round" fill="#000000" stroke="#000000" stroke-width="1"></polygon></g></g><g><g cursor="cell"><line x1="-416" y1="296" x2="-432" y2="287" stroke="red" stroke-width="8" opacity="0"></line><line x1="-416" y1="296" x2="-432" y2="287" stroke="#000000" stroke-width="2" stroke-linecap="round"></line></g></g><g><g cursor="cell"><line x1="-224" y1="167" x2="-138" y2="216" stroke="red" stroke-width="8" opacity="0"></line><line x1="-224" y1="167" x2="-138" y2="216" stroke="#000000" stroke-width="2" stroke-linecap="round"></line><polygon points="-128 222, -137 207, -140 215, -154 217, -128 222" stroke-linejoin="round" fill="#000000" stroke="#000000" stroke-width="1"></polygon></g></g><g><g cursor="cell"><line x1="224" y1="426" x2="246" y2="438" stroke="red" stroke-width="8" opacity="0"></line><line x1="224" y1="426" x2="246" y2="438" stroke="#000000" stroke-width="2" stroke-linecap="round"></line><polygon points="256 444, 247 429, 244 437, 230 439, 256 444" stroke-linejoin="round" fill="#000000" stroke="#000000" stroke-width="1"></polygon></g></g><g><g cursor="cell"><line x1="-32" y1="278" x2="-10" y2="290" stroke="red" stroke-width="8" opacity="0"></line><line x1="-32" y1="278" x2="-10" y2="290" stroke="#000000" stroke-width="2" stroke-linecap="round"></line><polygon points="0 296, -9 281, -12 289, -26 291, 0 296" stroke-linejoin="round" fill="#000000" stroke="#000000" stroke-width="1"></polygon></g></g></g><g pointer-events=""><g opacity="1"><g id="4013ce6e-9805-4fb3-aef4-b5d603a7cc42" transform="translate(0 0)"><g><polygon points="-64 185, 0 222, -64 259, -128 222" fill="#fff"></polygon><polygon points="-128 259, -64 296, -64 259, -128 222" fill="#e6e6e6" stroke="#999"></polygon><polygon points="-64 296, 0 259, 0 222, -64 259" fill="#ccc" stroke="#999"></polygon><polygon points="-64 185, -128 222, -128 259, -64 296, 0 259, 0 222" fill="none" stroke="#000000" stroke-width="2"></polygon></g></g></g><g opacity="1"><g id="8dab48c4-8df0-4b0f-9970-839eb1be86c0" transform="translate(0 0)"><g><polygon points="-352 259, -288 296, -352 333, -416 296" fill="#fff"></polygon><polygon points="-416 333, -352 370, -352 333, -416 296" fill="#e6e6e6" stroke="#999"></polygon><polygon points="-352 370, -288 333, -288 296, -352 333" fill="#ccc" stroke="#999"></polygon><polygon points="-352 259, -416 296, -416 333, -352 370, -288 333, -288 296" fill="none" stroke="#000000" stroke-width="2"></polygon></g></g></g><g opacity="1"><g id="b568b236-c3d1-4769-b17c-4a461d8cdd4e" transform="translate(0 0)"><svg x="0" y="259" height="111" width="128" fill-rule="evenodd"><path d="M64 74v37l64-37V37L64 74z" fill="#b8b8bb"></path><path d="M0 37v37l64 37V74L0 37z" fill="#d2d2d4"></path><path d="M0 37L64 0l64 37-64 37L0 37z" fill="#ececed"></path><path d="M64 73.407l62.111-35.86.514.889-62.487 36.078h-.276L.743 38.072l.514-.89L64 73.407z" fill="#83838a"></path><path d="M63.486 74h1.027v36h-1.027z" fill="#83838a"></path><path d="M128 37v37l-64 37L0 74V37L64 0l64 37zM2.054 38.185v34.63L64 108.627l61.946-35.812v-34.63L64 2.373 2.054 38.185z" fill="#000000"></path></svg><svg x="55" y="277" width="60" height="35" style="user-select:none;overflow:visible;cursor:default"><rect transform="matrix(0.707 0.409 -0.707 0.409 0 0)" width="60" height="35" rx="5" ry="5" fill="#4286c5"></rect><text transform="matrix(0.707 0.409 -0.707 0.409 0 0)" font-family="Open Sans" font-size="20pt" fill="#ffffff" text-anchor="middle" x="50%" y="75%"><tspan>M4</tspan></text></svg></g></g><g opacity="1"><g id="6067749d-ca1a-48f8-b866-02f7935a7cb1" transform="translate(0 0)"><g><polygon points="192 333, 256 370, 192 407, 128 370" fill="#fff"></polygon><polygon points="128 407, 192 444, 192 407, 128 370" fill="#e6e6e6" stroke="#999"></polygon><polygon points="192 444, 256 407, 256 370, 192 407" fill="#ccc" stroke="#999"></polygon><polygon points="192 333, 128 370, 128 407, 192 444, 256 407, 256 370" fill="none" stroke="#000000" stroke-width="2"></polygon></g></g></g><g opacity="1"><g id="75cd71cb-afbd-4ecf-a37a-ed720c887c18" transform="translate(0 0)"><g><polygon points="-512 352, -448 389, -512 426, -576 389" fill="#fff"></polygon><polygon points="-576 426, -512 463, -512 426, -576 389" fill="#e6e6e6" stroke="#999"></polygon><polygon points="-512 463, -448 426, -448 389, -512 426" fill="#ccc" stroke="#999"></polygon><polygon points="-512 352, -576 389, -576 426, -512 463, -448 426, -448 389" fill="none" stroke="#000000" stroke-width="2"></polygon></g></g></g><g opacity="1"><g id="c346d25e-5065-484e-8b19-34d94baa97c6" transform="translate(0 0)"><svg x="256" y="407" height="111" width="128" fill-rule="evenodd"><path d="M64 74v37l64-37V37L64 74z" fill="#b8b8bb"></path><path d="M0 37v37l64 37V74L0 37z" fill="#d2d2d4"></path><path d="M0 37L64 0l64 37-64 37L0 37z" fill="#ececed"></path><path d="M64 73.407l62.111-35.86.514.889-62.487 36.078h-.276L.743 38.072l.514-.89L64 73.407z" fill="#83838a"></path><path d="M63.486 74h1.027v36h-1.027z" fill="#83838a"></path><path d="M128 37v37l-64 37L0 74V37L64 0l64 37zM2.054 38.185v34.63L64 108.627l61.946-35.812v-34.63L64 2.373 2.054 38.185z" fill="#000000"></path></svg><svg x="311" y="425" width="60" height="35" style="user-select:none;overflow:visible;cursor:default"><rect transform="matrix(0.707 0.409 -0.707 0.409 0 0)" width="60" height="35" rx="5" ry="5" fill="#4286c5"></rect><text transform="matrix(0.707 0.409 -0.707 0.409 0 0)" font-family="Open Sans" font-size="20pt" fill="#ffffff" text-anchor="middle" x="50%" y="75%"><tspan>M4</tspan></text></svg></g></g><g opacity="1"><g id="b08992db-03b0-4d79-8a28-84f16563e8ae" transform="translate(0 0)"><g><polygon points="-704 463, -640 500, -704 537, -768 500" fill="#ececed"></polygon><polygon points="-768 537, -704 574, -704 537, -768 500" fill="#d2d2d4" stroke="#83838a"></polygon><polygon points="-704 574, -640 537, -640 500, -704 537" fill="#b8b8bb" stroke="#83838a"></polygon><polygon points="-704 463, -768 500, -768 537, -704 574, -640 537, -640 500" fill="none" stroke="#000000" stroke-width="2"></polygon></g></g></g><g opacity="1"><g id="3d3b01cc-b6c7-4426-a519-c52fcafa9106" transform="translate(0 0)"><g><polygon points="96 555, 160 592, 96 629, 32 592" fill="#fff"></polygon><polygon points="32 629, 96 666, 96 629, 32 592" fill="#e6e6e6" stroke="#999"></polygon><polygon points="96 666, 160 629, 160 592, 96 629" fill="#ccc" stroke="#999"></polygon><polygon points="96 555, 32 592, 32 629, 96 666, 160 629, 160 592" fill="none" stroke="#000000" stroke-width="2"></polygon></g></g></g></g><g pointer-events=""></g><g pointer-events=""><g opacity="1"><g id="e20e4a08-22b5-4fc9-a809-372300560d7e" transform="translate(0 0)"><svg x="-608" y="685" overflow="visible"><g transform="scale(2.1836601342771385) matrix(0.707 0.409 -0.707 0.409 0 0)"><circle cx="0" cy="0" fill="#000000" r="23"></circle><svg width="23" height="32" x="-11.5" y="-16" style="fill:#ffffff"><svg xmlns="http://www.w3.org/2000/svg" width="23" height="32" viewBox="0 0 23 32"><path d="M21.214 9.786L16 15v14.714c0 1.107-.893 2-2 2s-2-.893-2-2v-6.857h-1.143v6.857c0 1.107-.893 2-2 2s-2-.893-2-2V15L1.643 9.786a1.736 1.736 0 0 1 0-2.429 1.736 1.736 0 0 1 2.429 0l4.071 4.071h6.571l4.071-4.071a1.736 1.736 0 0 1 2.429 0c.661.679.661 1.75 0 2.429zm-5.785-2.929c0 2.214-1.786 4-4 4s-4-1.786-4-4 1.786-4 4-4 4 1.786 4 4z"/></svg></svg></g></svg></g></g><g opacity="1"><g id="f1a613c9-f647-4225-a044-880284982616" transform="translate(0 0)"><svg x="-704" y="500" overflow="visible"><g transform="scale(1.7469281074217107) matrix(0.707 0.409 -0.707 0.409 0 0)"><circle cx="0" cy="0" fill="#000000" r="23"></circle><svg width="27" height="32" x="-13.5" y="-16" style="fill:#ffffff"><svg xmlns="http://www.w3.org/2000/svg" width="27" height="32" viewBox="0 0 27 32"><path d="M13.714 2.286c7.571 0 13.714 6.143 13.714 13.714 0 6.054-3.929 11.196-9.375 13.018-.696.125-.946-.304-.946-.661 0-.446.018-1.929.018-3.768 0-1.286-.429-2.107-.929-2.536 3.054-.339 6.268-1.5 6.268-6.768 0-1.5-.536-2.714-1.411-3.679.143-.357.607-1.75-.143-3.643-1.143-.357-3.768 1.411-3.768 1.411a12.895 12.895 0 0 0-6.858 0S7.659 7.606 6.516 7.963c-.75 1.893-.286 3.286-.143 3.643-.875.964-1.411 2.179-1.411 3.679 0 5.25 3.196 6.429 6.25 6.768-.393.357-.75.964-.875 1.839-.786.357-2.786.964-3.982-1.143-.75-1.304-2.107-1.411-2.107-1.411-1.339-.018-.089.839-.089.839.893.411 1.518 2 1.518 2 .804 2.446 4.625 1.625 4.625 1.625 0 1.143.018 2.214.018 2.554 0 .357-.25.786-.946.661-5.446-1.821-9.375-6.964-9.375-13.018 0-7.571 6.143-13.714 13.714-13.714zM5.196 21.982c.036-.071-.018-.161-.125-.214-.107-.036-.196-.018-.232.036-.036.071.018.161.125.214.089.054.196.036.232-.036zm.554.607c.071-.054.054-.179-.036-.286-.089-.089-.214-.125-.286-.054-.071.054-.054.179.036.286.089.089.214.125.286.054zm.536.804c.089-.071.089-.214 0-.339-.071-.125-.214-.179-.304-.107-.089.054-.089.196 0 .321s.232.179.304.125zm.75.75c.071-.071.036-.232-.071-.339-.125-.125-.286-.143-.357-.054-.089.071-.054.232.071.339.125.125.286.143.357.054zm1.018.446c.036-.107-.071-.232-.232-.286-.143-.036-.304.018-.339.125s.071.232.232.268c.143.054.304 0 .339-.107zm1.125.09c0-.125-.143-.214-.304-.196-.161 0-.286.089-.286.196 0 .125.125.214.304.196.161 0 .286-.089.286-.196zm1.035-.179c-.018-.107-.161-.179-.321-.161-.161.036-.268.143-.25.268.018.107.161.179.321.143s.268-.143.25-.25z"/></svg></svg></g></svg></g></g><g opacity="1"><g id="a77501ad-30df-49cc-9fe2-1220c0b0d3bb" transform="translate(0 0)"><svg x="-512" y="389" overflow="visible"><g transform="scale(0.8944271909999159) matrix(0.707 0.409 -0.707 0.409 0 0)"><svg width="100" height="100" x="-50" y="-50" style="fill:#ffffff"><svg data-name="Layer 1" xmlns="http://www.w3.org/2000/svg" width="100" height="100" viewBox="0 0 100 100"><path fill="#b7ca9d" d="M29.62 60.37l-4.89-.83-8.68.77 4.27 15.1 9.3-15.04z"/><path fill="#4b612c" d="M16.05 43.13v13.71l4.39.63L29 50.43l-8.56-7.92-4.39.62z"/><path fill="#759c3e" d="M20.44 61.3l9.18-.93v13.74l-9.18.66-3.54-7.16 3.54-6.31z"/><path fill="#3c4929" d="M24.85 40.47l4.77-.8-9.18-15.22-4.39 15.24 8.8.78z"/><path fill="#759c3e" d="M20.44 23.77l9.18 2.16v13.74l-9.18-.92V23.77zM20.44 42.54l9.18.61V56.9l-9.18.62V42.54z"/><path fill="#3c4929" d="M29.62 35.59l7.02-1.64-9.62-13.13-6.58 13.48 9.18 1.29z"/><path fill="#759c3e" d="M27.02 20.5l9.62 2.7v10.75l-9.62-1.62V20.5z"/><path fill="#b7ca9d" d="M36.64 66.03l-7-1.64-9.2 1.3 6.58 13.86 9.62-13.52z"/><path fill="#759c3e" d="M27.02 67.67l9.62-1.62v10.79l-9.62 2.71-8.7-6.75 8.7-5.13z"/><path fill="#3c4929" d="M83.88 39.68l-8.8.78-11.73-1.96 9.56-18.04 10.97 19.22z"/><path fill="#4b612c" d="M20.44 65.69v-4.43l-4.39-.95v13.71l10.97 5.49V67.66l-6.58-1.97z"/><path fill="#b7ca9d" d="M83.9 60.32l-8.8-.78-11.75 1.97 9.56 17.67L83.9 60.32z"/><path fill="#4b612c" d="M72.91 20.46l-9.56 2.69V38.5l9.56-1.15 10.4-6.28-10.4-10.61zM72.91 41.47l-9.56.78V57.6l9.56.76 10.4-8.08-10.4-8.81zM72.91 62.73l-9.56-1.16v15.35l9.56 2.7 9.62-10.97-9.62-5.92z"/><path fill="#3c4929" d="M39.91 16.05l-9.61 15.3 9.78 1.79 9.91-2.31-10.08-14.78z"/><path fill="#3c4929" d="M69.64 36.63l-9.79 1.28-19.94-3.34L49.99 9.1l19.65 27.53z"/><path fill="#4b612c" d="M49.99 61.68l18.87-11.65-18.87-11.74-10.08 1.44v20.52l10.08 1.43z"/><path fill="#759c3e" d="M49.99 38.29v23.39l19.65-2.8V41.09l-19.65-2.8z"/><path fill="#b7ca9d" d="M69.64 63.38l-9.79-1.29-19.94 3.35 10.08 25.55 19.65-27.61z"/><path fill="#b7ca9d" d="M49.93 69.14l-9.78-2.29-9.81 1.8 9.2 16.73 10.39-16.24z"/><path fill="#4b612c" d="M30.29 68.64v12.51L49.99 91l18.37-18.2-18.37-5.19-10.08-2.17v6.08l-9.62-2.88zM27.02 32.33V20.5l-10.97 5.48v13.71l4.39-.94V34.3l6.58-1.97zM39.91 28.47v6.1l10.08-2.16 18.14-5.19-18.14-18.2-19.7 9.84v12.49l9.62-2.88z"/><path fill="#759c3e" d="M49.99 9v23.41l19.65 4.22V18.82L49.99 9zM83.95 39.7V25.98l-11.04-5.52v16.87l11.04 2.37zM83.95 56.84v-13.7l-11.04-1.58v16.86l11.04-1.58zM49.99 67.61v23.38l19.65-9.83V63.38l-19.65 4.23zM83.95 74.01v-13.7l-11.04 2.37v16.85l11.04-5.52z"/></svg></svg></g></svg></g></g><g opacity="1"><g id="f3676c2f-7f6a-4989-bfe2-563378a9f957" transform="translate(0 0)"><svg x="-352" y="296" overflow="visible"><g transform="scale(1.3975424859373686) matrix(0.707 0.409 -0.707 0.409 0 0)"><svg width="100" height="100" x="-50" y="-50" style="fill:#ffffff"><svg data-name="Layer 1" xmlns="http://www.w3.org/2000/svg" width="100" height="100" viewBox="0 0 100 100"><path fill="#9d5025" d="M23.5 37.61h53v27.25h-53z"/><path fill="#f58536" d="M23.5 35.13h53v27.25h-53z"/><path fill="#fbbf93" d="M34.95 36.76h2.5v24h-2.5zM25.75 36.76h2.5v24h-2.5zM30.35 36.76h2.5v24h-2.5zM62.55 36.76h2.5v24h-2.5zM67.15 36.76h2.5v24h-2.5zM71.75 36.76h2.5v24h-2.5z"/><path fill="#fff" d="M26.4 37.41h1.85v23.35H26.4zM31 37.41h1.85v23.35H31zM35.6 37.41h1.85v23.35H35.6zM63.2 37.41h1.85v23.35H63.2zM67.8 37.41h1.85v23.35H67.8zM72.4 37.41h1.85v23.35H72.4zM57.15 53.12a1.28 1.28 0 0 1 1.29 1.28v1a1.29 1.29 0 0 1-1.29 1.28h-14.3a1.29 1.29 0 0 1-1.29-1.28v-1a1.28 1.28 0 0 1 1.29-1.28zm-.57 2.31a.51.51 0 1 0 0-1h-5.35a.51.51 0 1 0 0 1h5.35M56.46 40.53a2 2 0 0 1 2 1.94v7.24a2 2 0 0 1-2 1.94H43.52a2 2 0 0 1-1.95-1.94v-7.24a2 2 0 0 1 1.95-1.94zm.54 9.19v-7.25a.58.58 0 0 0-.59-.58H43.52a.58.58 0 0 0-.58.58v7.24a.58.58 0 0 0 .58.58h12.94a.59.59 0 0 0 .59-.58"/></svg></svg></g></svg></g></g><g opacity="1"><g id="efcae7e5-bbd7-409c-a16b-0785ca462df3" transform="translate(0 0)"><svg x="96" y="592" overflow="visible"><g transform="scale(1.3975424859373686) matrix(0.707 0.409 -0.707 0.409 0 0)"><svg width="100" height="100" x="-50" y="-50" style="fill:#ffffff"><svg data-name="Layer 1" xmlns="http://www.w3.org/2000/svg" width="100" height="100" viewBox="0 0 100 100"><rect x="23.5" y="24.74" width="53" height="53" rx="9.12" ry="9.12" fill="#9d5025"/><rect x="23.5" y="22.26" width="53" height="53" rx="9.12" ry="9.12" fill="#f58536"/><path fill="#fff" d="M51.1 54.94h5.68v11.29H51.1zM58.07 49.14h5.69v17.08h-5.69zM65.04 58.79h5.69v7.43h-5.69zM70.31 67.06H50.64v3.06h20.49v-3.06h-.82z"/></svg></svg></g></svg></g></g></g><g pointer-events=""><g opacity="1"><g id="fdc2dd14-73f3-4ece-b8c6-d0e43dce4b6f" transform="translate(0 0)"><svg x="-416" y="796" overflow="visible" style="user-select:none"><text stroke="#ffffff" stroke-width="4" font-family="Open Sans" y="59.3" font-size="45pt" fill="#000000" font-weight="bold" transform="matrix(0.707 0.409 -0.707 0.409 0 0)" xml:space="preserve"><tspan x="8" dy="0">Process Flow</tspan></text><text font-family="Open Sans" y="59.3" font-size="45pt" fill="#000000" font-weight="bold" transform="matrix(0.707 0.409 -0.707 0.409 0 0)" xml:space="preserve"><tspan x="8" dy="0">Process Flow</tspan></text></svg></g></g><g opacity="1"><g id="84ecca0b-9ec6-47c1-8c47-668494588b52" transform="translate(0 0)"><svg x="-528" y="490" overflow="visible" style="user-select:none"><text stroke="#ffffff" stroke-width="4" font-family="Open Sans" y="36.5" font-size="25pt" fill="#607d8b" font-weight="bold" transform="matrix(0.707 -0.409 0.707 0.409 0 0)" xml:space="preserve"><tspan x="8" dy="0">CodeBuild</tspan></text><text font-family="Open Sans" y="36.5" font-size="25pt" fill="#607d8b" font-weight="bold" transform="matrix(0.707 -0.409 0.707 0.409 0 0)" xml:space="preserve"><tspan x="8" dy="0">CodeBuild</tspan></text></svg></g></g><g opacity="1"><g id="96e19e52-d86c-4d8f-a08c-9c7aa24cb877" transform="translate(0 0)"><svg x="-368" y="398" overflow="visible" style="user-select:none"><text stroke="#ffffff" stroke-width="4" font-family="Open Sans" y="36.5" font-size="25pt" fill="#607d8b" font-weight="bold" transform="matrix(0.707 -0.409 0.707 0.409 0 0)" xml:space="preserve"><tspan x="8" dy="0">    Build </tspan><tspan x="8" dy="1.1em">Container</tspan></text><text font-family="Open Sans" y="36.5" font-size="25pt" fill="#607d8b" font-weight="bold" transform="matrix(0.707 -0.409 0.707 0.409 0 0)" xml:space="preserve"><tspan x="8" dy="0">    Build </tspan><tspan x="8" dy="1.1em">Container</tspan></text></svg></g></g><g opacity="1"><g id="8aff1bde-2f22-46d5-8a51-23fa57f0b028" transform="translate(0 0)"><svg x="-48" y="194" overflow="visible" style="user-select:none"><text stroke="#000000" stroke-width="2" font-family="Open Sans" y="36.5" font-size="25pt" fill="#ffffff" font-weight="bold" transform="matrix(0.707 -0.409 0.707 0.409 0 0)" xml:space="preserve"><tspan x="8" dy="0">Packer</tspan><tspan x="8" dy="1.1em"> Build</tspan></text><text font-family="Open Sans" y="36.5" font-size="25pt" fill="#ffffff" font-weight="bold" transform="matrix(0.707 -0.409 0.707 0.409 0 0)" xml:space="preserve"><tspan x="8" dy="0">Packer</tspan><tspan x="8" dy="1.1em"> Build</tspan></text></svg></g></g><g opacity="1"><g id="8b235fe6-becb-44a8-ad59-f035384da9fd" transform="translate(0 0)"><svg x="80" y="268" overflow="visible" style="user-select:none"><text stroke="#000000" stroke-width="2" font-family="Open Sans" y="36.5" font-size="25pt" fill="#ffffff" font-weight="bold" transform="matrix(0.707 -0.409 0.707 0.409 0 0)" xml:space="preserve"><tspan x="8" dy="0"> Base</tspan><tspan x="8" dy="1.1em">Image</tspan></text><text font-family="Open Sans" y="36.5" font-size="25pt" fill="#ffffff" font-weight="bold" transform="matrix(0.707 -0.409 0.707 0.409 0 0)" xml:space="preserve"><tspan x="8" dy="0"> Base</tspan><tspan x="8" dy="1.1em">Image</tspan></text></svg></g></g><g opacity="1"><g id="639b83a3-a894-49cf-9d58-542ba8534295" transform="translate(0 0)"><svg x="208" y="342" overflow="visible" style="user-select:none"><text stroke="#000000" stroke-width="2" font-family="Open Sans" y="36.5" font-size="25pt" fill="#ffffff" font-weight="bold" transform="matrix(0.707 -0.409 0.707 0.409 0 0)" xml:space="preserve"><tspan x="8" dy="0">Ansible</tspan><tspan x="8" dy="1.1em"> Config</tspan></text><text font-family="Open Sans" y="36.5" font-size="25pt" fill="#ffffff" font-weight="bold" transform="matrix(0.707 -0.409 0.707 0.409 0 0)" xml:space="preserve"><tspan x="8" dy="0">Ansible</tspan><tspan x="8" dy="1.1em"> Config</tspan></text></svg></g></g><g opacity="1"><g id="3450c5d8-fb89-4dad-8d43-fd556bb9c58f" transform="translate(0 0)"><svg x="336" y="416" overflow="visible" style="user-select:none"><text stroke="#000000" stroke-width="2" font-family="Open Sans" y="36.5" font-size="25pt" fill="#ffffff" font-weight="bold" transform="matrix(0.707 -0.409 0.707 0.409 0 0)" xml:space="preserve"><tspan x="8" dy="0">Harden</tspan><tspan x="8" dy="1.1em">   AMI</tspan></text><text font-family="Open Sans" y="36.5" font-size="25pt" fill="#ffffff" font-weight="bold" transform="matrix(0.707 -0.409 0.707 0.409 0 0)" xml:space="preserve"><tspan x="8" dy="0">Harden</tspan><tspan x="8" dy="1.1em">   AMI</tspan></text></svg></g></g><g opacity="1"><g id="a9d65744-f67e-4bce-8a30-dd328cf3125b" transform="translate(0 0)"><svg x="-704" y="592" overflow="visible" style="user-select:none"><text stroke="#ffffff" stroke-width="4" font-family="Open Sans" y="36.5" font-size="25pt" fill="#607d8b" font-weight="bold" transform="matrix(0.707 -0.409 0.707 0.409 0 0)" xml:space="preserve"><tspan x="8" dy="0">GITHUB</tspan></text><text font-family="Open Sans" y="36.5" font-size="25pt" fill="#607d8b" font-weight="bold" transform="matrix(0.707 -0.409 0.707 0.409 0 0)" xml:space="preserve"><tspan x="8" dy="0">GITHUB</tspan></text></svg></g></g><g opacity="1"><g id="a1d48a32-4afe-407e-95d4-b42514621abc" transform="translate(0 0)"><svg x="80" y="694" overflow="visible" style="user-select:none"><text stroke="#ffffff" stroke-width="4" font-family="Open Sans" y="36.5" font-size="25pt" fill="#607d8b" font-weight="bold" transform="matrix(0.707 -0.409 0.707 0.409 0 0)" xml:space="preserve"><tspan x="8" dy="0">    Build </tspan><tspan x="8" dy="1.1em">Container</tspan></text><text font-family="Open Sans" y="36.5" font-size="25pt" fill="#607d8b" font-weight="bold" transform="matrix(0.707 -0.409 0.707 0.409 0 0)" xml:space="preserve"><tspan x="8" dy="0">    Build </tspan><tspan x="8" dy="1.1em">Container</tspan></text></svg></g></g></g></g></svg>